# AST/ASF file generated using VICON BodyLanguage
# -----------------------------------------------
:version 1.10
:name VICON
:units
  mass 1.0
  length 0.45
  angle deg
:documentation
   .ast/.asf automatically generated from VICON data using
   VICON BodyBuilder and BodyLanguage model FoxedUp or BRILLIANT.MOD
:root
   order TX TY TZ RX RY RZ
   axis XYZ
   position 0 0 0  
   orientation 0 0 0 
:bonedata
  begin
     id 1 
     name lhipjoint
     direction 0.62366 -0.717238 0.310833 
     length 2.53602 
     axis 0 0 0  XYZ
  end
  begin
     id 2 
     name lfemur
     direction 0.34202 -0.939693 0  
     length 7.40817  
     axis 0 0 20  XYZ
    dof rx ry rz
    limits (-160.0 20.0)
           (-70.0 70.0)
           (-60.0 70.0)
  end
  begin
     id 3 
     name ltibia
     direction 0.34202 -0.939693 0   
     length 7.7045   
     axis 0 0 20   XYZ
    dof rx
    limits (-10.0 170.0)
  end
  begin
     id 4 
     name lfoot
     direction 0.0673888 -0.185149 0.980397   
     length 2.09456   
     axis -90 7.62852e-016 20   XYZ
    dof rx rz
    limits (-45.0 90.0)
           (-70.0 20.0)
  end
  begin
     id 5 
     name ltoes
     direction 1.53575e-011 -4.21994e-011 1   
     length 1.05543   
     axis -90 7.62852e-016 20   XYZ
    dof rx
    limits (-90.0 20.0)
  end
  begin
     id 6 
     name rhipjoint
     direction -0.489018 -0.800347 0.346851   
     length 2.27268  
     axis 0 0 0  XYZ 
  end
  begin
     id 7 
     name rfemur
     direction -0.34202 -0.939693 0   
     length 7.55487   
     axis 0 0 -20   XYZ
    dof rx ry rz
    limits (-160.0 20.0)
           (-70.0 70.0)
           (-70.0 60.0)
  end
  begin
     id 8 
     name rtibia
     direction -0.34202 -0.939693 0   
     length 7.78969   
     axis 0 0 -20   XYZ
    dof rx
    limits (-10.0 170.0)
 end
 begin
     id 9 
     name rfoot
     direction -0.0859318 -0.236096 0.967923   
     length 2.19143  
     axis -90 -7.62852e-016 -20   XYZ
    dof rx rz
    limits (-45.0 90.0)
           (-20.0 70.0)
  end
  begin
     id 10 
     name rtoes
     direction -1.53538e-011 -4.21989e-011 1   
     length 1.09845   
     axis -90 -7.62852e-016 -20   XYZ
    dof rx
    limits (-90.0 20.0)
  end
  begin
     id 11 
     name lowerback
     direction -0.00762546 0.998978 -0.0445553   
     length 1.98161   
     axis 0 0 0   XYZ
    dof rx ry rz
    limits (-20.0 45.0)
           (-30.0 30.0)
           (-30.0 30.0)
  end
  begin
     id 12 
     name upperback
     direction 0.0422361 0.998867 -0.0219156   
     length 1.97558   
     axis 0 0 0   XYZ
    dof rx ry rz
    limits (-20.0 45.0)
           (-30.0 30.0)
           (-30.0 30.0)
  end
  begin
     id 13 
     name thorax
     direction 0.0442465 0.999021 7.47603e-005   
     length 1.97799   
     axis 0 0 0   XYZ
    dof rx ry rz
    limits (-20.0 45.0)
           (-30.0 30.0)
           (-30.0 30.0)
  end
  begin
     id 14 
     name lowerneck
     direction 0.00312169 0.984641 0.174564   
     length 1.78995   
     axis 0 0 0   XYZ
    dof rx ry rz
    limits (-20.0 45.0)
           (-30.0 30.0)
           (-30.0 30.0)
  end
  begin
     id 15 
     name upperneck
     direction -0.0383028 0.985255 -0.166749   
     length 1.83053   
     axis 0 0 0   XYZ
    dof rx ry rz
    limits (-20.0 45.0)
           (-30.0 30.0)
           (-30.0 30.0)
  end
  begin
     id 16
     name head
     direction -0.0129546 0.997059 -0.0755386  
     length 1.84088  
     axis 0 0 0   XYZ
    dof rx ry rz
    limits (-20.0 45.0)
           (-30.0 30.0)
           (-30.0 30.0)
  end
  begin
     id 17 
     name lclavicle
     direction 0.912857 0.370519 -0.171488  
     length 3.51279  
     axis 0 0 0   XYZ
    dof ry rz
    limits (-20.0 10.0)
           (0.0 20.0)
  end
  begin
     id 18 
     name lhumerus
     direction 1 -4.48962e-011 3.64361e-027   
     length 4.95663   
     axis 180 -30 -90   XYZ
    dof rx ry rz
    limits (-60.0 90.0)
           (-90.0 90.0)
           (-90.0 90.0)
  end
  begin
     id 19
     name lradius
     direction 1 -4.48974e-011 5.97202e-027   
     length 3.38177   
     axis 180 -30 -90   XYZ
    dof rx
    limits (-10.0 170.0)
  end
  begin
     id 20
     name lwrist
     direction 1 -4.4896e-011 9.83288e-027   
     length 1.69088   
     axis -9.31221e-015 90 90   XYZ
    dof ry
    limits (-180.0 0.0)
 end
  begin
     id 21 
     name lhand
     direction 1 -4.4902e-011 1.96551e-026   
     length 0.662909   
     axis -1.25475e-014 90 90   XYZ
    dof rx rz
    limits (-90.0 90.0)
           (-45.0 45.0)
  end
  begin
     id 22 
     name lfingers
     direction 1 -4.48971e-011 3.93277e-026   
     length 0.534454   
     axis -2.50945e-014 90 90   XYZ
    dof rx
    limits (0.0 90.0)
  end
  begin
     id 23
     name lthumb
     direction 0.707107 -6.34933e-011 0.707107   
     length 0.767373   
     axis -90 45 -4.80359e-014   XYZ
    dof rx rz
    limits (-45.0 45.0)
           (-45.0 45.0)
  end
  begin
     id 24 
     name rclavicle
     direction -0.900919 0.395364 -0.178976   
     length 3.40627  
     axis 0 0 0   XYZ 
    dof ry rz
    limits (-10.0 20.0)
           (-20.0 0.0)
  end
  begin
     id 25 
     name rhumerus
     direction -1 -4.48969e-011 1.03875e-027  
     length 5.08365   
     axis 180 30 90   XYZ
    dof rx ry rz
    limits (-90.0 60.0)
           (-90.0 90.0)
           (-90.0 90.0)
  end
  begin
     id 26 
     name rradius
     direction -1 -4.48951e-011 5.02733e-027   
     length 3.35984   
     axis 180 30 90   XYZ
    dof rx
    limits (-10.0 170.0)
  end
  begin
     id 27 
     name rwrist
     direction -1 -4.49011e-011 9.82828e-027   
     length 1.67992   
     axis -9.31221e-015 -90 -90   XYZ
    dof ry
    limits (-180.0 0.0)
  end
  begin
     id 28
     name rhand
     direction -1 -4.48894e-011 1.96774e-026   
     length 0.820764   
     axis -1.25475e-014 -90 -90   XYZ
    dof rx rz
    limits (-90.0 90.0)
           (-45.0 45.0)
  end
  begin
     id 29
     name rfingers
     direction -1 -4.49095e-011 3.92833e-026   
     length 0.661721   
     axis -2.50945e-014 -90 -90   XYZ
    dof rx
    limits (0.0 90.0)
  end
  begin
     id 30
     name rthumb
     direction -0.707107 -6.34881e-011 0.707107   
     length 0.950103   
     axis -90 -45 4.80359e-014   XYZ
    dof rx rz
    limits (-45.0 45.0)
           (-45.0 45.0)
  end
:hierarchy
  begin
    root lhipjoint rhipjoint lowerback
    lhipjoint lfemur
    lfemur ltibia
    ltibia lfoot
    lfoot ltoes
    rhipjoint rfemur
    rfemur rtibia
    rtibia rfoot
    rfoot rtoes
    lowerback upperback
    upperback thorax
    thorax lowerneck lclavicle rclavicle
    lowerneck upperneck
    upperneck head
    lclavicle lhumerus
    lhumerus lradius
    lradius lwrist
    lwrist lhand lthumb
    lhand lfingers
    rclavicle rhumerus
    rhumerus rradius
    rradius rwrist
    rwrist rhand rthumb
    rhand rfingers
  end

#!OML:ASF I:\golf\golf\golf 2\Subject 1\2002-09-07\Subject1.ASF
:FULLY-SPECIFIED
:DEGREES
78
root -6.66944 17.8698 0.191314 -122.943 85.0805 -139.726
lowerback 2.37121 1.49506 -1.88789
upperback 4.1774 2.04544 5.08435
thorax 2.73605 0.954687 6.35033
lowerneck -14.0716 -3.14785 1.36403
upperneck 41.1462 -1.66015 -3.15638
head 17.4244 -0.231659 -1.78768
rclavicle -1.15295e-014 -8.74653e-015
rhumerus -6.38522 -0.132501 -99.171
rradius 21.3444
rwrist -38.2532
rhand -14.728 -4.72342
rfingers 7.12502
rthumb 11.4271 -34.392
lclavicle -1.15295e-014 -8.74653e-015
lhumerus -14.441 -51.9305 113.644
lradius 32.391
lwrist 43.4005
lhand -11.0659 69.5232
lfingers 7.12502
lthumb -165.043 81.0369
rfemur -26.0962 -1.23142 10.8544
rtibia 24.7572
rfoot -8.03984 -14.6573
rtoes -5.45869
lfemur -28.0086 4.18441 -6.77936
ltibia 24.9546
lfoot -8.7783 1.0335
ltoes -23.9998
79
root -6.6687 17.8705 0.191965 -122.978 85.0654 -139.76
lowerback 2.35264 1.48787 -1.89897
upperback 4.18739 2.03547 5.08163
thorax 2.75791 0.948719 6.35487
lowerneck -14.0996 -3.13706 1.34482
upperneck 41.1647 -1.64764 -3.1291
head 17.4438 -0.225565 -1.77056
rclavicle 2.06736e-014 2.54444e-014
rhumerus -6.39543 -0.270156 -99.1723
rradius 21.3875
rwrist -38.3154
rhand -14.4826 -4.63756
rfingers 7.12502
rthumb 11.6637 -34.2929
lclavicle 2.06736e-014 2.54444e-014
lhumerus -14.3559 -51.8262 113.546
lradius 32.3054
lwrist 43.1244
lhand -10.7651 69.4532
lfingers 7.12502
lthumb -164.753 81.1287
rfemur -26.0919 -1.22892 10.8725
rtibia 24.7614
rfoot -8.15053 -14.6703
rtoes -4.84986
lfemur -28.0123 4.20918 -6.78059
ltibia 24.9702
lfoot -8.80396 1.04682
ltoes -24.4159
80
root -6.66819 17.8711 0.192738 -123.173 85.0937 -139.942
lowerback 2.34686 1.49196 -1.94371
upperback 4.20828 2.0403 5.07023
thorax 2.7814 0.949035 6.36929
lowerneck -14.1209 -3.14193 1.33599
upperneck 41.1617 -1.6495 -3.13967
head 17.4477 -0.229722 -1.77462
rclavicle -1.98785e-015 2.38542e-014
rhumerus -6.43189 -0.241327 -99.1693
rradius 21.5384
rwrist -38.5666
rhand -14.4015 -4.66482
rfingers 7.12502
rthumb 11.7419 -34.3157
lclavicle -1.98785e-015 2.38542e-014
lhumerus -14.2694 -51.7954 113.448
lradius 32.2228
lwrist 42.9605
lhand -10.3595 69.188
lfingers 7.12502
lthumb -164.363 81.424
rfemur -26.0832 -1.26999 10.8539
rtibia 24.7622
rfoot -8.1959 -14.6561
rtoes -4.50649
lfemur -28.0049 4.20247 -6.80509
ltibia 24.9967
lfoot -8.80856 1.02023
ltoes -24.2758
81
root -6.66866 17.8697 0.193571 -122.71 85.0795 -139.476
lowerback 2.34365 1.49405 -1.92633
upperback 4.21418 2.04347 5.08468
thorax 2.78905 0.950932 6.37496
lowerneck -14.129 -3.15189 1.28716
upperneck 41.1746 -1.64559 -3.14216
head 17.4584 -0.235669 -1.76673
rclavicle -1.82882e-014 -1.82882e-014
rhumerus -6.46673 -0.327666 -99.1728
rradius 21.6231
rwrist -38.6632
rhand -14.2489 -4.67763
rfingers 7.12502
rthumb 11.8891 -34.3201
lclavicle -1.82882e-014 -1.82882e-014
lhumerus -14.1625 -51.5962 113.321
lradius 32.1148
lwrist 42.4859
lhand -9.99928 68.9152
lfingers 7.12502
lthumb -164.016 81.7243
rfemur -26.0869 -1.21911 10.8896
rtibia 24.7585
rfoot -8.24671 -14.7202
rtoes -4.03986
lfemur -28.0181 4.26507 -6.76969
ltibia 25.0275
lfoot -8.78243 0.975518
ltoes -24.3393
82
root -6.66921 17.8685 0.194401 -122.206 84.9894 -138.949
lowerback 2.36733 1.484 -1.84132
upperback 4.21552 2.03171 5.11508
thorax 2.78013 0.948022 6.35778
lowerneck -14.1199 -3.15078 1.27826
upperneck 41.1727 -1.63076 -3.16464
head 17.4554 -0.234089 -1.77251
rclavicle 4.57205e-014 5.1684e-014
rhumerus -6.47384 -0.434224 -99.1704
rradius 21.6092
rwrist -38.756
rhand -14.0149 -4.6347
rfingers 7.12502
rthumb 12.1148 -34.264
lclavicle 4.57205e-014 5.1684e-014
lhumerus -14.1051 -51.5367 113.199
lradius 32.1141
lwrist 42.2671
lhand -9.67358 68.8628
lfingers 7.12502
lthumb -163.702 81.8021
rfemur -26.0585 -1.18581 10.9927
rtibia 24.7579
rfoot -8.34476 -14.747
rtoes -3.24833
lfemur -28.0231 4.31053 -6.67083
ltibia 25.0594
lfoot -8.80487 0.960428
ltoes -24.5086
83
root -6.6694 17.8694 0.194906 -122.158 84.9672 -138.875
lowerback 2.39485 1.50672 -1.78937
upperback 4.22268 2.06265 5.09154
thorax 2.77044 0.965537 6.30189
lowerneck -14.1485 -3.16192 1.32935
upperneck 41.1825 -1.66031 -3.17489
head 17.4659 -0.239035 -1.79247
rclavicle 3.18055e-015 -1.27222e-014
rhumerus -6.45475 -0.537782 -99.1807
rradius 21.6141
rwrist -39.0557
rhand -13.7788 -4.69292
rfingers 7.12502
rthumb 12.3424 -34.3086
lclavicle 3.18055e-015 -1.27222e-014
lhumerus -14.1868 -51.9168 113.153
lradius 32.268
lwrist 42.8931
lhand -9.23024 69.3871
lfingers 7.12502
lthumb -163.275 81.3133
rfemur -26.0316 -1.21724 11.0199
rtibia 24.7616
rfoot -8.28194 -14.6803
rtoes -3.73117
lfemur -28.0089 4.28991 -6.63623
ltibia 25.0884
lfoot -8.84909 0.939431
ltoes -24.1798
84
root -6.66969 17.8703 0.195467 -122.181 85.0391 -138.87
lowerback 2.44649 1.5603 -1.78164
upperback 4.21954 2.13371 5.01564
thorax 2.73191 1.00257 6.21413
lowerneck -14.1789 -3.19306 1.36694
upperneck 41.2218 -1.73353 -3.13206
head 17.4932 -0.254818 -1.79409
rclavicle -3.22031e-014 -4.85035e-014
rhumerus -6.32441 -1.55895 -99.2516
rradius 21.3558
rwrist -38.3418
rhand -13.1445 -4.67798
rfingers 7.12502
rthumb 12.9539 -34.2559
lclavicle -3.22031e-014 -4.85035e-014
lhumerus -14.325 -52.3083 113.159
lradius 32.4082
lwrist 43.8164
lhand -8.62154 70.1818
lfingers 7.12502
lthumb -162.689 80.5691
rfemur -26.0164 -1.23501 10.9667
rtibia 24.7667
rfoot -8.02381 -14.6136
rtoes -5.5428
lfemur -27.9663 4.27836 -6.68321
ltibia 25.1059
lfoot -8.88181 0.917403
ltoes -23.8201
85
root -6.66975 17.8694 0.195109 -122.562 85.0367 -139.207
lowerback 2.51083 1.56208 -1.75329
upperback 4.21457 2.1367 4.98434
thorax 2.69198 1.00613 6.1621
lowerneck -14.1299 -3.19946 1.34594
upperneck 41.1947 -1.75348 -3.09097
head 17.4652 -0.260996 -1.77331
rclavicle -2.38542e-014 -4.21423e-014
rhumerus -6.12524 -2.97315 -99.3197
rradius 20.8936
rwrist -36.8846
rhand -12.5186 -4.55739
rfingers 7.12502
rthumb 13.5572 -34.096
lclavicle -2.38542e-014 -4.21423e-014
lhumerus -14.2949 -52.2217 113.059
lradius 32.3998
lwrist 44.0507
lhand -7.89811 70.1447
lfingers 7.12502
lthumb -161.993 80.6689
rfemur -25.9719 -1.30519 10.9609
rtibia 24.7781
rfoot -7.91569 -14.571
rtoes -6.35172
lfemur -27.9291 4.24356 -6.69577
ltibia 25.1105
lfoot -8.88689 0.918
ltoes -23.7421
